# xmcd
#
# Track frame offsets:
#	150
#	13085
#	30155
#	42585
#	59542
#	72592
#	87487
#	100602
#	116990
#	127955
#
# Disc length: 1900 seconds
#
# Revision: 4
# Processed by: cddbd v1.5.1PL2 Copyright (c) Steve Scherf et al.
# Submitted via: dBpowerAMP V4.0
#
DISCID=88076a0a
DTITLE=Alan Jackson - Don't Rock The Jukebox
DYEAR=1991
DGENRE=Country
TTITLE0=Don't Rock The Jukebox
TTITLE1=That's All I Need To Know
TTITLE2=Dallas
TTITLE3=Midnight In Montgomery
TTITLE4=Love's Got A Hold On You
TTITLE5=Someday
TTITLE6=Just Playin' Possum
TTITLE7=From A Distance
TTITLE8=Walkin' The Floor Over Me
TTITLE9=Working Class Hero
EXTD=YEAR - 1991\nArista  ARCD-8681\n(Bertelsmann Music Group Company, New York, USA)
EXTT0=
EXTT1=
EXTT2=
EXTT3=
EXTT4=
EXTT5=
EXTT6=
EXTT7=
EXTT8=
EXTT9=
PLAYORDER=
